<?xml version="1.0" encoding="UTF-8" standalone="no"?>
<!-- Created with Inkscape (http://www.inkscape.org/) -->
<svg
   xmlns:dc="http://purl.org/dc/elements/1.1/"
   xmlns:cc="http://creativecommons.org/ns#"
   xmlns:rdf="http://www.w3.org/1999/02/22-rdf-syntax-ns#"
   xmlns:svg="http://www.w3.org/2000/svg"
   xmlns="http://www.w3.org/2000/svg"
   xmlns:sodipodi="http://sodipodi.sourceforge.net/DTD/sodipodi-0.dtd"
   xmlns:inkscape="http://www.inkscape.org/namespaces/inkscape"
   width="512"
   height="256"
   id="svg2"
   sodipodi:version="0.32"
   inkscape:version="0.46"
   sodipodi:docname="donotenter.svg"
   inkscape:output_extension="org.inkscape.output.svg.inkscape"
   version="1.0"
   inkscape:export-filename="/media/projetos/games/blender_game_engine/textures/level_nut/sign_dontenter.png"
   inkscape:export-xdpi="90"
   inkscape:export-ydpi="90">
  <defs
     id="defs4">
    <inkscape:perspective
       sodipodi:type="inkscape:persp3d"
       inkscape:vp_x="0 : 526.18109 : 1"
       inkscape:vp_y="0 : 1000 : 0"
       inkscape:vp_z="744.09448 : 526.18109 : 1"
       inkscape:persp3d-origin="372.04724 : 350.78739 : 1"
       id="perspective10" />
    <inkscape:perspective
       id="perspective2390"
       inkscape:persp3d-origin="372.04724 : 350.78739 : 1"
       inkscape:vp_z="744.09448 : 526.18109 : 1"
       inkscape:vp_y="0 : 1000 : 0"
       inkscape:vp_x="0 : 526.18109 : 1"
       sodipodi:type="inkscape:persp3d" />
    <inkscape:perspective
       id="perspective2403"
       inkscape:persp3d-origin="372.04724 : 350.78739 : 1"
       inkscape:vp_z="744.09448 : 526.18109 : 1"
       inkscape:vp_y="0 : 1000 : 0"
       inkscape:vp_x="0 : 526.18109 : 1"
       sodipodi:type="inkscape:persp3d" />
    <inkscape:perspective
       id="perspective2416"
       inkscape:persp3d-origin="372.04724 : 350.78739 : 1"
       inkscape:vp_z="744.09448 : 526.18109 : 1"
       inkscape:vp_y="0 : 1000 : 0"
       inkscape:vp_x="0 : 526.18109 : 1"
       sodipodi:type="inkscape:persp3d" />
    <inkscape:perspective
       id="perspective2429"
       inkscape:persp3d-origin="372.04724 : 350.78739 : 1"
       inkscape:vp_z="744.09448 : 526.18109 : 1"
       inkscape:vp_y="0 : 1000 : 0"
       inkscape:vp_x="0 : 526.18109 : 1"
       sodipodi:type="inkscape:persp3d" />
    <inkscape:perspective
       id="perspective2442"
       inkscape:persp3d-origin="372.04724 : 350.78739 : 1"
       inkscape:vp_z="744.09448 : 526.18109 : 1"
       inkscape:vp_y="0 : 1000 : 0"
       inkscape:vp_x="0 : 526.18109 : 1"
       sodipodi:type="inkscape:persp3d" />
    <inkscape:perspective
       id="perspective2455"
       inkscape:persp3d-origin="372.04724 : 350.78739 : 1"
       inkscape:vp_z="744.09448 : 526.18109 : 1"
       inkscape:vp_y="0 : 1000 : 0"
       inkscape:vp_x="0 : 526.18109 : 1"
       sodipodi:type="inkscape:persp3d" />
  </defs>
  <sodipodi:namedview
     id="base"
     pagecolor="#ffffff"
     bordercolor="#666666"
     borderopacity="1.0"
     gridtolerance="10000"
     guidetolerance="10"
     objecttolerance="10"
     inkscape:pageopacity="0.0"
     inkscape:pageshadow="2"
     inkscape:zoom="0.89975133"
     inkscape:cx="383.0565"
     inkscape:cy="99.863754"
     inkscape:document-units="px"
     inkscape:current-layer="layer1"
     showgrid="false" />
  <metadata
     id="metadata7">
    <rdf:RDF>
      <cc:Work
         rdf:about="">
        <dc:format>image/svg+xml</dc:format>
        <dc:type
           rdf:resource="http://purl.org/dc/dcmitype/StillImage" />
      </cc:Work>
    </rdf:RDF>
  </metadata>
  <g
     inkscape:label="Layer 1"
     inkscape:groupmode="layer"
     id="layer1">
    <path
       style="fill:#502d16"
       d="M 119.06223,232.43791 C 117.06702,231.63055 114.71446,230.25497 113.83433,229.38106 C 112.02669,227.58618 105.65502,213.05952 105.11576,209.50372 C 104.71515,206.8622 106.09173,207.45715 88.589866,202.36127 C 82.205176,200.50229 76.562096,198.75149 76.049676,198.47061 C 75.537256,198.18973 73.174726,195.04072 70.799626,191.47281 C 68.424516,187.90491 65.666996,183.88038 64.671786,182.52942 C 63.676586,181.17846 62.642046,178.89303 62.372816,177.45069 C 62.103586,176.00836 60.686726,171.40012 59.224246,167.21017 C 56.722616,160.04307 56.601426,159.29142 57.177286,154.51336 C 57.513946,151.72006 58.138506,145.5427 58.565206,140.7859 C 59.309756,132.48568 59.466136,131.93019 62.446066,127.00078 C 67.283876,118.99804 69.194006,114.8394 70.379076,109.72948 C 71.703426,104.01903 73.638736,99.010122 74.520756,99.010122 C 75.894066,99.010122 75.053896,96.820272 72.388446,93.452402 C 69.756416,90.126762 69.132586,89.777172 60.598536,86.845402 C 55.642576,85.142852 51.149476,83.755272 50.613846,83.761892 C 50.078226,83.768522 48.809856,84.426922 47.795256,85.225012 C 46.308586,86.394422 44.878126,86.671012 40.425496,86.649982 C 35.680536,86.627572 34.597506,86.376292 32.754666,84.870212 C 28.029616,81.008602 31.807466,74.170162 41.269916,69.456422 C 51.602116,64.309412 51.951006,64.208682 57.776476,64.690412 C 62.078086,65.046142 65.210796,65.977272 72.961106,69.203732 L 82.725976,73.268882 C 88.787856,79.399932 95.462806,85.441242 94.692186,92.813082 L 97.664036,98.007212 L 95.441446,109.50662 C 94.128816,116.29796 91.426286,126.49958 88.840556,134.42396 C 84.000836,149.25602 84.063946,148.0895 87.499006,159.22102 C 89.389576,165.34753 90.021856,166.51798 92.529356,168.53306 C 94.106736,169.80069 95.601516,170.83784 95.851056,170.83784 C 96.100596,170.83784 97.374896,171.65406 98.682826,172.65167 C 100.79499,174.26269 103.46328,175.07714 103.46328,174.11083 C 96.840486,162.38734 97.122326,150.66385 96.713836,138.94036 L 99.420746,128.58855 C 102.04651,118.54707 102.31202,117.95397 108.27742,108.80481 C 115.8742,98.647082 121.58729,86.919612 135.62207,82.126892 C 145.69268,77.941432 148.3606,76.983132 153.29848,75.777672 C 158.40752,74.530442 163.01497,70.235512 166.56587,63.410232 C 168.2864,60.103172 171.01223,55.967392 172.62327,54.219622 C 175.41108,51.195202 175.51112,50.927572 174.69618,48.673922 C 174.22525,47.371562 173.83993,45.330492 173.83993,44.138202 C 173.83993,42.945912 173.36058,41.336642 172.7747,40.562052 C 172.18884,39.787462 171.6991,38.743312 171.68641,38.241722 C 171.64756,36.706402 181.44341,37.974822 188.71335,40.446472 C 192.30473,41.667462 196.71234,42.748552 198.50803,42.848872 C 204.1064,42.945622 209.56725,42.492352 215.54099,44.090642 C 235.33817,55.094892 238.82903,63.942752 245.08683,81.045262 C 248.1971,86.059412 248.56934,87.107432 248.56573,90.839952 C 248.55983,96.938292 247.44177,100.35246 245.27234,100.89695 C 244.29263,101.14284 243.49256,101.71674 243.49441,102.17229 C 243.49845,103.16894 246.71557,111.18289 247.37726,111.84457 C 248.1333,112.60061 247.91114,118.47252 247.10772,118.96906 C 246.70263,119.21942 245.92848,120.46302 245.38739,121.73262 C 244.8463,123.00223 243.53862,124.83877 242.48143,125.81383 C 240.71572,127.44238 240.35575,127.51308 238.05864,126.68243 C 234.96123,125.56239 232.29581,126.63015 232.96059,128.72469 C 233.46792,130.32318 231.76094,132.20539 229.22721,132.84132 C 226.47994,133.53083 213.55709,131.86106 208.85766,130.20935 C 203.86713,128.45531 202.65351,128.42138 198.27452,129.91345 C 194.58185,131.17167 193.84286,132.8221 196.65602,133.52816 C 198.95385,134.10488 200.42682,136.41953 201.80295,141.61614 C 203.22269,146.97742 202.62456,151.74236 199.83635,157.28287 C 197.25531,162.4117 196.35642,162.39464 194.39346,157.17956 C 193.77936,155.54807 193.69,155.59581 191.67665,158.63063 L 189.59481,161.76868 L 191.15868,167.95323 L 192.72254,174.13778 L 190.50333,180.65005 C 189.28277,184.2318 188.43754,187.8153 188.62506,188.61338 C 191.25201,199.79355 191.32455,200.41295 190.88011,207.8715 C 190.3461,216.83345 190.79936,219.31206 193.13459,220.19992 C 195.49976,221.09915 199.62728,219.25009 200.8228,216.75573 C 201.93472,214.43579 211.06498,208.56552 213.56136,208.56552 C 215.58625,208.56552 218.82294,210.5561 218.82294,211.80141 C 218.82294,212.29224 218.13523,213.31578 217.29467,214.07595 C 216.45413,214.83613 215.16184,216.64261 214.42293,218.09036 C 213.51525,219.86878 211.12796,222.04707 207.06343,224.80555 C 201.11115,228.84519 200.97051,228.8959 193.79207,229.59126 C 189.80165,229.9778 185.8344,230.30248 184.97597,230.31278 C 183.07094,230.33563 180.71894,226.6276 179.55412,221.76503 C 178.43984,217.11338 175.77314,212.64096 173.10756,210.95323 C 171.04893,209.6498 170.54694,209.61855 166.15997,210.52072 C 161.83984,211.40914 160.86441,211.36005 154.86925,209.95255 C 147.88357,208.31252 145.74966,208.42438 140.90018,210.68485 C 138.85652,211.63745 134.90001,212.3153 128.25348,212.85153 C 122.93355,213.28074 118.25462,213.83354 117.85585,214.08 C 116.89124,214.67616 117.72221,217.7827 119.52264,220.31118 C 120.55552,221.76173 121.59609,222.35064 123.12619,222.35064 C 125.29905,222.35064 131.13634,224.95723 134.88271,227.60041 C 136.49867,228.74051 136.87243,229.50624 136.69654,231.31641 L 136.47501,233.59639 L 129.58245,233.75111 C 124.08661,233.87448 121.95478,233.60837 119.06223,232.43791 z M 231.59739,124.70718 C 231.35517,124.07599 231.157,123.42301 231.157,123.25612 C 231.157,123.08924 230.65578,122.95269 230.04317,122.95269 C 229.15417,122.95269 229.0861,123.24559 229.70593,124.40376 C 230.62242,126.11623 232.23751,126.37533 231.59739,124.70718 z"
       id="path2463"
       sodipodi:nodetypes="cssssssssssssssssssssscccccssssscccccsssssssscccsssssssssssssssscccccssssssssssssssssssssscccccsssc" />
    <path
       style="fill:#502d16"
       d="M 396.23672,233.70609 C 395.61256,233.56835 393.82519,232.95672 392.26478,232.34691 C 389.55033,231.28608 389.29279,231.2791 386.30688,232.18533 C 378.61645,234.51941 367.58203,232.2584 367.58203,228.34853 C 367.58203,226.51047 366.45543,226.6162 364.0436,228.68065 C 361.22349,231.09457 359.51481,231.63554 357.54512,230.73808 C 356.3466,230.19201 355.78113,230.27111 354.19553,231.20663 C 352.49457,232.21022 352.12261,232.24643 350.76256,231.54083 C 349.86962,231.07756 348.53503,230.88992 347.54351,231.08822 C 346.28341,231.34024 345.65368,231.15877 345.08381,230.37942 C 344.16901,229.12837 344.07358,226.04807 344.9233,225.19836 C 345.2563,224.86536 345.57547,223.23884 345.63257,221.58388 C 345.72551,218.89003 345.91468,218.47044 347.43865,217.57797 C 348.37488,217.02968 349.82807,216.56242 350.66793,216.53961 C 352.51528,216.48944 357.9359,211.54335 357.9359,209.90787 C 357.9359,207.83798 360.13052,202.83166 361.94266,200.76775 C 363.75656,198.70184 363.76226,198.67577 363.42997,193.96722 C 363.24651,191.36757 362.9464,188.99786 362.76306,188.70121 C 362.57973,188.40457 359.82275,187.37054 356.63644,186.40337 C 353.3906,185.41814 350.4289,184.16297 349.90107,183.54893 C 349.38293,182.94616 348.73773,182.45297 348.46731,182.45297 C 348.19688,182.45297 346.1951,184.26854 344.0189,186.48759 C 327.56232,205.54156 313.38905,205.44525 289.98253,200.79357 C 282.06042,198.58138 268.45373,186.40818 268.93933,159.47249 C 274.83944,140.51049 281.63864,135.8216 298.92427,125.51097 C 302.20111,123.79403 305.96357,121.79613 307.28527,121.07119 L 309.68836,119.75313 L 312.39204,121.17951 C 315.26804,122.69678 315.29106,122.76387 314.50117,127.32699 C 314.18866,129.13234 313.78673,129.41077 306.40645,132.93416 C 292.90844,139.52393 276.69623,143.56914 276.79492,162.90581 C 273.01739,203.44084 324.43159,204.16085 340.54998,182.45297 C 347.3328,176.33945 347.17735,176.76034 345.999,167.70006 C 345.20383,161.58601 346.17518,152.98829 348.56321,145.00329 C 349.63654,141.41436 351.29276,134.90322 352.24372,130.53409 C 354.50837,120.1292 357.89844,107.46842 358.67632,106.51042 C 359.0155,106.09271 361.51804,104.68836 364.23752,103.38962 C 368.88099,101.17204 369.49846,100.65747 374.37921,94.937882 C 377.23767,91.588162 379.41831,88.591702 379.22509,88.279082 C 379.03189,87.966452 375.6033,86.679572 371.60604,85.419332 L 364.33826,83.127992 C 344.38641,67.299662 352.9201,50.586432 368.8199,36.911842 C 376.46415,29.345045 386.78355,26.69564 396.57479,22.882394 L 401.35014,24.080081 C 403.97658,24.738814 406.92529,25.277775 407.90281,25.277775 C 409.83016,25.277775 415.73283,23.727704 416.68278,22.972099 C 417.30769,22.475073 422.26749,22.552958 422.82749,22.477068 C 427.34273,21.86519 430.60183,30.957374 428.86334,32.405342 C 428.55045,32.665932 427.65048,34.120282 426.1681,35.311482 C 424.68572,36.502682 423.28551,37.732632 423.05653,38.044722 C 422.82756,38.356802 422.6657,40.271842 422.69684,42.300372 C 422.72798,44.328882 422.4734,48.414312 422.1311,51.379072 C 420.77005,63.167992 420.76684,63.119252 423.17633,67.244882 C 424.37026,69.289172 425.83178,71.400382 426.42412,71.936452 C 427.82892,73.207772 431.9376,74.642562 434.18336,74.645982 C 437.56093,74.651152 442.35992,80.729422 445.20299,88.603302 C 446.49311,92.176262 446.80352,97.513862 445.99156,102.16312 C 445.60306,104.38762 445.53459,104.44355 442.55222,104.97308 C 439.79904,105.46191 439.23206,105.83538 436.59783,108.89523 C 434.99653,110.75525 432.92038,113.13023 431.98412,114.17298 L 430.28189,116.06889 C 420.98547,118.77859 411.67104,119.9481 402.38609,119.19814 C 396.11302,118.31036 390.86004,105.32302 386.35719,99.924542 C 385.71955,99.530452 377.765,104.13598 377.38845,105.11726 C 377.22952,105.5314 378.37053,107.71719 379.924,109.97459 C 384.43422,116.52848 384.60462,117.01851 384.60462,123.43553 C 384.60462,126.58413 384.87581,131.63976 385.20728,134.67024 C 385.89007,140.91299 385.13657,139.90721 393.82316,146.17084 C 398.49431,149.74584 402.02542,155.22091 404.02551,163.24766 C 399.83537,178.36514 395.72581,179.71529 380.79991,186.0855 C 378.25813,186.932 375.92621,187.92918 375.61788,188.30144 C 375.30956,188.67371 374.97421,191.27744 374.87266,194.08749 C 374.69502,199.00358 374.75137,199.27974 376.36359,201.39346 L 378.03915,203.59022 L 376.49882,207.93886 C 375.65164,210.33061 374.95849,212.95035 374.95849,213.76053 C 374.95849,214.57071 374.57705,215.96495 374.11085,216.85885 C 373.21232,218.58171 372.96971,221.36921 373.68179,221.78856 C 373.91586,221.92639 375.59588,221.83306 377.41518,221.58115 C 379.81098,221.24941 381.61014,221.35862 383.9405,221.97721 C 386.22176,222.58277 388.42102,222.72552 391.49849,222.46779 C 395.5741,222.12648 398.28792,222.41423 406.01714,224.00723 C 410.78001,224.98886 411.8471,227.31303 409.09521,230.71147 C 408.17532,231.84749 407.50396,232.02314 403.94119,232.05991 C 400.65851,232.09378 399.73448,232.29942 399.28928,233.09516 C 398.73179,234.09159 398.33951,234.17009 396.23672,233.70609 z"
       id="path2461"
       sodipodi:nodetypes="csssssssssssssssssssscccccccscccssssssscccccsssssssssssssssccccsssscccsscccssssssssssc" />
    <path
       style="opacity:1;fill:#ff0000;fill-opacity:1;fill-rule:nonzero;stroke:none;stroke-width:62.73754883;stroke-linecap:butt;stroke-linejoin:miter;marker:none;marker-start:none;marker-mid:none;marker-end:none;stroke-miterlimit:4;stroke-dasharray:none;stroke-dashoffset:0;stroke-opacity:1;visibility:visible;display:inline;overflow:visible;enable-background:accumulate"
       d="M 73.936986,51.354612 C 70.188856,52.698912 70.518756,59.527712 73.620486,61.561042 C 83.937276,75.841752 91.229136,83.947652 102.55712,96.881292 C 127.10149,119.2805 147.78445,139.35112 171.28651,163.27539 C 191.78963,187.28157 195.09328,196.80392 219.20638,216.16287 C 222.9385,218.05986 227.01707,218.9089 231.0825,218.5196 C 206.44151,175.0279 190.68145,157.76199 153.91356,129.15418 C 130.23487,109.36378 101.78233,66.277262 75.459176,51.535892 C 74.957996,51.418032 74.450926,51.278392 73.936986,51.354612 z"
       id="path2487"
       sodipodi:nodetypes="ccccccccc" />
    <path
       id="path2535"
       d="M 270.14664,60.221672 C 266.03875,61.380182 266.40031,67.265152 269.79977,69.017452 C 281.10684,81.324382 298.49804,86.643022 310.91336,97.789062 C 337.81368,117.09242 366.35658,134.38902 392.11453,155.00665 C 414.5857,175.69487 431.13066,202.2372 457.5583,218.9205 C 461.64866,220.5553 466.11872,221.28699 470.57438,220.95149 C 459.28664,203.30705 440.70507,191.09813 428.33438,174.28396 C 406.24976,149.38074 379.65001,127.89825 350.16291,111.15481 C 324.21136,94.099702 300.66479,73.081832 271.81495,60.377902 C 271.26566,60.276332 270.70991,60.156002 270.14664,60.221672 z"
       style="opacity:1;fill:#ff0000;fill-opacity:1;fill-rule:nonzero;stroke:none;stroke-width:62.73754883;stroke-linecap:butt;stroke-linejoin:miter;marker:none;marker-start:none;marker-mid:none;marker-end:none;stroke-miterlimit:4;stroke-dasharray:none;stroke-dashoffset:0;stroke-opacity:1;visibility:visible;display:inline;overflow:visible;enable-background:accumulate" />
    <path
       style="opacity:1;fill:#ff0000;fill-opacity:1;fill-rule:nonzero;stroke:none;stroke-width:62.73754883;stroke-linecap:butt;stroke-linejoin:miter;marker:none;marker-start:none;marker-mid:none;marker-end:none;stroke-miterlimit:4;stroke-dasharray:none;stroke-dashoffset:0;stroke-opacity:1;visibility:visible;display:inline;overflow:visible;enable-background:accumulate"
       d="M 295.38626,195.68503 C 296.10251,199.14261 301.5051,199.33676 303.38734,196.7012 C 315.56238,188.47434 321.86324,174.68755 333.07057,165.45725 C 352.92873,145.0544 371.09139,123.14048 392.05446,103.78174 C 412.80882,87.118172 438.41504,75.790872 455.842,55.556622 C 457.67439,52.345972 458.71387,48.749442 458.77788,45.075862 C 441.7317,52.842492 429.04157,67.029562 412.66336,75.751402 C 388.09315,91.747762 366.27056,111.72325 348.53443,134.45579 C 330.8076,154.26953 309.66292,171.78557 295.66755,194.33302 C 295.52916,194.774 295.37312,195.21869 295.38626,195.68503 z"
       id="path2537" />
    <path
       id="path2539"
       d="M 62.943896,210.17807 C 59.029566,209.13078 59.204476,203.24195 62.366936,201.40029 C 72.702216,188.80254 88.984336,183.02314 100.39969,171.55544 C 125.27068,151.55035 151.75059,133.50601 175.50493,112.21857 C 196.15161,90.948672 211.03283,63.989262 235.53142,46.614302 C 239.35005,44.871512 243.55304,44.020762 247.77266,44.236532 C 237.60685,62.165982 220.39519,74.860752 209.1826,91.989772 C 189.02057,117.46014 164.49533,139.63416 137.10757,157.15117 C 113.06938,174.88481 91.415886,196.51286 64.515836,209.97728 C 63.999696,210.09348 63.477986,210.22859 62.943896,210.17807 z"
       style="opacity:1;fill:#ff0000;fill-opacity:1;fill-rule:nonzero;stroke:none;stroke-width:62.73754883;stroke-linecap:butt;stroke-linejoin:miter;marker:none;marker-start:none;marker-mid:none;marker-end:none;stroke-miterlimit:4;stroke-dasharray:none;stroke-dashoffset:0;stroke-opacity:1;visibility:visible;display:inline;overflow:visible;enable-background:accumulate" />
  </g>
</svg>
